<svg width="430" height="325" viewBox="0 0 430 325" fill="none" xmlns="http://www.w3.org/2000/svg">
<path d="M262.415 192.786L247.732 178.156C193.246 129.956 157.633 97.461 157.633 57.604C157.633 25.174 182.806 0 215.237 0C233.103 0 250.902 8.396 262.415 22.004C273.928 8.396 291.727 0 309.593 0C342.023 0 367.197 25.174 367.197 57.604C367.197 97.46 331.585 129.956 277.098 178.156L262.415 192.786Z" fill="#FD7267"/>
<path d="M429.237 190.419C425.346 194.649 420.714 198.304 416.474 202.153C411.363 206.8 406.116 211.294 400.815 215.717C390.966 223.941 380.915 231.912 371.023 240.084C369.075 235.125 364.877 230.888 360.509 227.989C353.875 223.583 345.865 221.32 337.804 220.144C342.769 213.688 351.123 211.018 358.321 207.832C366.713 204.124 373.417 198.286 380.602 192.71C387.682 187.214 395.373 182.244 404.545 181.576C413.115 180.953 423.65 183.415 429.237 190.419Z" fill="#205691"/>
<path d="M418.582 173.021C417.906 175.128 416.372 177.056 415.118 178.841C412.71 178.358 410.264 178.074 407.856 177.939C397.723 177.357 388.665 182.208 380.77 188.055C372.85 193.917 365.77 200.607 356.663 204.636C348.205 208.373 339.139 211.503 333.8 219.567C333.783 219.59 333.77 219.613 333.758 219.636C331.108 219.361 328.481 219.184 325.92 219.068C325.045 219.029 324.171 218.999 323.296 218.977C329.277 212.473 336.779 207.623 344.271 202.972C352.54 197.83 360.441 192.512 368.031 186.404C375.634 180.283 383.407 173.86 392.669 170.433C400.863 167.404 411.95 166.405 418.582 173.021Z" fill="#205691"/>
<path d="M388.281 168.255C381.185 171.41 374.811 176.381 368.84 181.142C364.885 184.292 360.997 187.517 356.904 190.491C352.614 193.613 348.057 196.37 343.545 199.161C334.505 204.748 325.311 210.577 318.562 218.933C311.92 218.981 305.284 219.426 298.654 219.921C304.542 214.028 311.453 209.254 318.194 204.378C325.935 198.786 332.822 192.532 339.781 186.019C346.561 179.68 353.766 173.551 362.517 170.156C370.516 167.053 379.806 166.398 388.281 168.255Z" fill="#205691"/>
<path d="M277.172 260.169C276.738 260.104 276.331 260.088 276.113 259.987C273.744 259.77 271.364 259.589 268.985 259.449L263.033 259.164C262.939 259.106 262.174 259.236 262.097 259.168C258.881 259.096 255.661 259.113 252.45 259.241L249.044 259.426C246.077 259.625 243.114 259.919 240.17 260.335C226.819 262.225 214.127 266.309 202.046 272.262C199.961 273.293 198.125 270.172 200.22 269.141C213.652 262.519 227.845 258.042 242.761 256.392C254.127 255.134 265.579 255.369 276.945 256.437C277.157 256.446 277.369 256.464 277.587 256.495C279.264 256.659 280.934 256.839 282.607 257.034C293.765 258.341 304.823 260.44 316.021 261.43C327.297 262.43 339.196 262.688 350.038 258.929C358.482 256.003 370.883 251.967 368.151 241.162C365.515 230.714 353.972 228.542 344.542 225.869C331.959 222.305 318.78 222.106 305.796 222.454C292.901 222.807 279.975 220.448 267.076 220.118C254.927 219.806 242.571 215.009 231.901 208.853C231.771 208.804 231.635 208.736 231.504 208.645C231.446 208.605 231.387 208.563 231.328 208.523C231.31 208.514 231.292 208.505 231.279 208.492C231.233 208.47 231.202 208.437 231.161 208.41C213.59 196.303 194.644 180.618 172.31 179.921C160.546 179.555 149.18 182.739 137.756 185.068C132.152 186.212 126.363 187.366 120.628 187.483C114.925 187.6 109.226 187.505 103.523 187.474C90.225 187.397 77.024 188.112 64.477 192.942C52.51 197.551 41.058 203.521 30.556 210.893C20.031 218.283 11.053 227.184 1.782 236.026C1.19 236.591 0.597 237.156 0 237.718L48.602 310.318C51.497 308.201 54.509 306.252 57.657 304.529C69.041 298.301 81.311 295.393 94.283 295.578C107.449 295.763 120.651 298.11 133.455 301.032C147.779 304.306 161.931 308.255 176.133 311.999C190.257 315.717 204.478 319.313 218.887 321.737C232.84 324.079 247.765 325.464 261.713 322.324C261.849 322.293 261.981 322.279 262.112 322.275C275.336 314.36 286.317 303.47 297.2 292.678C302.627 287.296 308.05 281.895 313.79 276.848C318.204 272.968 322.771 268.901 327.815 265.74C313.902 265.718 299.855 262.9 286.074 261.086L277.172 260.169Z" fill="#205691"/>
<path d="M299.672 212.733C299.774 212.729 299.876 212.726 299.978 212.723V212.461C299.877 212.553 299.772 212.641 299.672 212.733Z" fill="black"/>
</svg>
